<svg id="visual" viewBox="0 0 900 450" width="900" height="450" xmlns="http://www.w3.org/2000/svg" xmlns:xlink="http://www.w3.org/1999/xlink" version="1.1"><rect x="0" y="0" width="900" height="450" fill="#ffffff"></rect><path d="M0 354L10.7 352.2C21.3 350.3 42.7 346.7 64.2 346.2C85.7 345.7 107.3 348.3 128.8 339.8C150.3 331.3 171.7 311.7 193 306.8C214.3 302 235.7 312 257 315.2C278.3 318.3 299.7 314.7 321.2 308.8C342.7 303 364.3 295 385.8 290.8C407.3 286.7 428.7 286.3 450 288.8C471.3 291.3 492.7 296.7 514.2 303.2C535.7 309.7 557.3 317.3 578.8 318.3C600.3 319.3 621.7 313.7 643 307.3C664.3 301 685.7 294 707 292.5C728.3 291 749.7 295 771.2 302.2C792.7 309.3 814.3 319.7 835.8 318.3C857.3 317 878.7 304 889.3 297.5L900 291L900 451L889.3 451C878.7 451 857.3 451 835.8 451C814.3 451 792.7 451 771.2 451C749.7 451 728.3 451 707 451C685.7 451 664.3 451 643 451C621.7 451 600.3 451 578.8 451C557.3 451 535.7 451 514.2 451C492.7 451 471.3 451 450 451C428.7 451 407.3 451 385.8 451C364.3 451 342.7 451 321.2 451C299.7 451 278.3 451 257 451C235.7 451 214.3 451 193 451C171.7 451 150.3 451 128.8 451C107.3 451 85.7 451 64.2 451C42.7 451 21.3 451 10.7 451L0 451Z" fill="#ffffff"></path><path d="M0 330L10.7 325.7C21.3 321.3 42.7 312.7 64.2 317.3C85.7 322 107.3 340 128.8 349.5C150.3 359 171.7 360 193 351.5C214.3 343 235.7 325 257 325.2C278.3 325.3 299.7 343.7 321.2 346.5C342.7 349.3 364.3 336.7 385.8 332C407.3 327.3 428.7 330.7 450 327.2C471.3 323.7 492.7 313.3 514.2 307.3C535.7 301.3 557.3 299.7 578.8 306.7C600.3 313.7 621.7 329.3 643 339.2C664.3 349 685.7 353 707 346.8C728.3 340.7 749.7 324.3 771.2 323.8C792.7 323.3 814.3 338.7 835.8 338.8C857.3 339 878.7 324 889.3 316.5L900 309L900 451L889.3 451C878.7 451 857.3 451 835.8 451C814.3 451 792.7 451 771.2 451C749.7 451 728.3 451 707 451C685.7 451 664.3 451 643 451C621.7 451 600.3 451 578.8 451C557.3 451 535.7 451 514.2 451C492.7 451 471.3 451 450 451C428.7 451 407.3 451 385.8 451C364.3 451 342.7 451 321.2 451C299.7 451 278.3 451 257 451C235.7 451 214.3 451 193 451C171.7 451 150.3 451 128.8 451C107.3 451 85.7 451 64.2 451C42.7 451 21.3 451 10.7 451L0 451Z" fill="#e5e5e5"></path><path d="M0 325L10.7 332.2C21.3 339.3 42.7 353.7 64.2 358.5C85.7 363.3 107.3 358.7 128.8 351.5C150.3 344.3 171.7 334.7 193 330.2C214.3 325.7 235.7 326.3 257 328C278.3 329.7 299.7 332.3 321.2 334.3C342.7 336.3 364.3 337.7 385.8 334C407.3 330.3 428.7 321.7 450 320.7C471.3 319.7 492.7 326.3 514.2 327.3C535.7 328.3 557.3 323.7 578.8 323.7C600.3 323.7 621.7 328.3 643 330.2C664.3 332 685.7 331 707 337.7C728.3 344.3 749.7 358.7 771.2 358.8C792.7 359 814.3 345 835.8 341.2C857.3 337.3 878.7 343.7 889.3 346.8L900 350L900 451L889.3 451C878.7 451 857.3 451 835.8 451C814.3 451 792.7 451 771.2 451C749.7 451 728.3 451 707 451C685.7 451 664.3 451 643 451C621.7 451 600.3 451 578.8 451C557.3 451 535.7 451 514.2 451C492.7 451 471.3 451 450 451C428.7 451 407.3 451 385.8 451C364.3 451 342.7 451 321.2 451C299.7 451 278.3 451 257 451C235.7 451 214.3 451 193 451C171.7 451 150.3 451 128.8 451C107.3 451 85.7 451 64.2 451C42.7 451 21.3 451 10.7 451L0 451Z" fill="#cbcbcb"></path><path d="M0 330L10.7 337.2C21.3 344.3 42.7 358.7 64.2 359.3C85.7 360 107.3 347 128.8 346.2C150.3 345.3 171.7 356.7 193 360.7C214.3 364.7 235.7 361.3 257 355.3C278.3 349.3 299.7 340.7 321.2 336C342.7 331.3 364.3 330.7 385.8 336.2C407.3 341.7 428.7 353.3 450 354.7C471.3 356 492.7 347 514.2 342C535.7 337 557.3 336 578.8 333.8C600.3 331.7 621.7 328.3 643 326.7C664.3 325 685.7 325 707 327C728.3 329 749.7 333 771.2 337.7C792.7 342.3 814.3 347.7 835.8 351.7C857.3 355.7 878.7 358.3 889.3 359.7L900 361L900 451L889.3 451C878.7 451 857.3 451 835.8 451C814.3 451 792.7 451 771.2 451C749.7 451 728.3 451 707 451C685.7 451 664.3 451 643 451C621.7 451 600.3 451 578.8 451C557.3 451 535.7 451 514.2 451C492.7 451 471.3 451 450 451C428.7 451 407.3 451 385.8 451C364.3 451 342.7 451 321.2 451C299.7 451 278.3 451 257 451C235.7 451 214.3 451 193 451C171.7 451 150.3 451 128.8 451C107.3 451 85.7 451 64.2 451C42.7 451 21.3 451 10.7 451L0 451Z" fill="#b2b2b2"></path><path d="M0 379L10.7 373C21.3 367 42.7 355 64.2 353.2C85.7 351.3 107.3 359.7 128.8 362.2C150.3 364.7 171.7 361.3 193 361.5C214.3 361.7 235.7 365.3 257 367.2C278.3 369 299.7 369 321.2 369C342.7 369 364.3 369 385.8 371.7C407.3 374.3 428.7 379.7 450 376.8C471.3 374 492.7 363 514.2 359.8C535.7 356.7 557.3 361.3 578.8 366.5C600.3 371.7 621.7 377.3 643 373.8C664.3 370.3 685.7 357.7 707 356C728.3 354.3 749.7 363.7 771.2 364.3C792.7 365 814.3 357 835.8 354.2C857.3 351.3 878.7 353.7 889.3 354.8L900 356L900 451L889.3 451C878.7 451 857.3 451 835.8 451C814.3 451 792.7 451 771.2 451C749.7 451 728.3 451 707 451C685.7 451 664.3 451 643 451C621.7 451 600.3 451 578.8 451C557.3 451 535.7 451 514.2 451C492.7 451 471.3 451 450 451C428.7 451 407.3 451 385.8 451C364.3 451 342.7 451 321.2 451C299.7 451 278.3 451 257 451C235.7 451 214.3 451 193 451C171.7 451 150.3 451 128.8 451C107.3 451 85.7 451 64.2 451C42.7 451 21.3 451 10.7 451L0 451Z" fill="#9a9a9a"></path><path d="M0 379L10.7 374C21.3 369 42.7 359 64.2 354.7C85.7 350.3 107.3 351.7 128.8 353.7C150.3 355.7 171.7 358.3 193 359.7C214.3 361 235.7 361 257 362.8C278.3 364.7 299.7 368.3 321.2 372C342.7 375.7 364.3 379.3 385.8 378.7C407.3 378 428.7 373 450 367.5C471.3 362 492.7 356 514.2 353.5C535.7 351 557.3 352 578.8 359C600.3 366 621.7 379 643 380C664.3 381 685.7 370 707 363.7C728.3 357.3 749.7 355.7 771.2 355.8C792.7 356 814.3 358 835.8 357.7C857.3 357.3 878.7 354.7 889.3 353.3L900 352L900 451L889.3 451C878.7 451 857.3 451 835.8 451C814.3 451 792.7 451 771.2 451C749.7 451 728.3 451 707 451C685.7 451 664.3 451 643 451C621.7 451 600.3 451 578.8 451C557.3 451 535.7 451 514.2 451C492.7 451 471.3 451 450 451C428.7 451 407.3 451 385.8 451C364.3 451 342.7 451 321.2 451C299.7 451 278.3 451 257 451C235.7 451 214.3 451 193 451C171.7 451 150.3 451 128.8 451C107.3 451 85.7 451 64.2 451C42.7 451 21.3 451 10.7 451L0 451Z" fill="#838383"></path><path d="M0 370L10.7 370.7C21.3 371.3 42.7 372.7 64.2 376.7C85.7 380.7 107.3 387.3 128.8 391C150.3 394.7 171.7 395.3 193 390.8C214.3 386.3 235.7 376.7 257 377C278.3 377.3 299.7 387.7 321.2 392.2C342.7 396.7 364.3 395.3 385.8 389.5C407.3 383.7 428.7 373.3 450 371.8C471.3 370.3 492.7 377.7 514.2 382.7C535.7 387.7 557.3 390.3 578.8 389.8C600.3 389.3 621.7 385.7 643 381.8C664.3 378 685.7 374 707 375.8C728.3 377.7 749.7 385.3 771.2 387.8C792.7 390.3 814.3 387.7 835.8 383.5C857.3 379.3 878.7 373.7 889.3 370.8L900 368L900 451L889.3 451C878.7 451 857.3 451 835.8 451C814.3 451 792.7 451 771.2 451C749.7 451 728.3 451 707 451C685.7 451 664.3 451 643 451C621.7 451 600.3 451 578.8 451C557.3 451 535.7 451 514.2 451C492.7 451 471.3 451 450 451C428.7 451 407.3 451 385.8 451C364.3 451 342.7 451 321.2 451C299.7 451 278.3 451 257 451C235.7 451 214.3 451 193 451C171.7 451 150.3 451 128.8 451C107.3 451 85.7 451 64.2 451C42.7 451 21.3 451 10.7 451L0 451Z" fill="#6c6c6c"></path><path d="M0 409L10.7 406.2C21.3 403.3 42.7 397.7 64.2 396.7C85.7 395.7 107.3 399.3 128.8 398.7C150.3 398 171.7 393 193 394.5C214.3 396 235.7 404 257 405.5C278.3 407 299.7 402 321.2 396.5C342.7 391 364.3 385 385.8 386.8C407.3 388.7 428.7 398.3 450 401.8C471.3 405.3 492.7 402.7 514.2 402C535.7 401.3 557.3 402.7 578.8 403.3C600.3 404 621.7 404 643 400.2C664.3 396.3 685.7 388.7 707 387.8C728.3 387 749.7 393 771.2 398C792.7 403 814.3 407 835.8 408.3C857.3 409.7 878.7 408.3 889.3 407.7L900 407L900 451L889.3 451C878.7 451 857.3 451 835.8 451C814.3 451 792.7 451 771.2 451C749.7 451 728.3 451 707 451C685.7 451 664.3 451 643 451C621.7 451 600.3 451 578.8 451C557.3 451 535.7 451 514.2 451C492.7 451 471.3 451 450 451C428.7 451 407.3 451 385.8 451C364.3 451 342.7 451 321.2 451C299.7 451 278.3 451 257 451C235.7 451 214.3 451 193 451C171.7 451 150.3 451 128.8 451C107.3 451 85.7 451 64.2 451C42.7 451 21.3 451 10.7 451L0 451Z" fill="#565656"></path><path d="M0 392L10.7 394.7C21.3 397.3 42.7 402.7 64.2 405.7C85.7 408.7 107.3 409.3 128.8 406.8C150.3 404.3 171.7 398.7 193 398.8C214.3 399 235.7 405 257 409.3C278.3 413.7 299.7 416.3 321.2 413C342.7 409.7 364.3 400.3 385.8 398.5C407.3 396.7 428.7 402.3 450 402.8C471.3 403.3 492.7 398.7 514.2 395.3C535.7 392 557.3 390 578.8 389.8C600.3 389.7 621.7 391.3 643 391.8C664.3 392.3 685.7 391.7 707 396C728.3 400.3 749.7 409.7 771.2 410.3C792.7 411 814.3 403 835.8 403C857.3 403 878.7 411 889.3 415L900 419L900 451L889.3 451C878.7 451 857.3 451 835.8 451C814.3 451 792.7 451 771.2 451C749.7 451 728.3 451 707 451C685.7 451 664.3 451 643 451C621.7 451 600.3 451 578.8 451C557.3 451 535.7 451 514.2 451C492.7 451 471.3 451 450 451C428.7 451 407.3 451 385.8 451C364.3 451 342.7 451 321.2 451C299.7 451 278.3 451 257 451C235.7 451 214.3 451 193 451C171.7 451 150.3 451 128.8 451C107.3 451 85.7 451 64.2 451C42.7 451 21.3 451 10.7 451L0 451Z" fill="#404040"></path><path d="M0 417L10.7 418.2C21.3 419.3 42.7 421.7 64.2 423.3C85.7 425 107.3 426 128.8 426.3C150.3 426.7 171.7 426.3 193 426.2C214.3 426 235.7 426 257 422.5C278.3 419 299.7 412 321.2 410.3C342.7 408.7 364.3 412.3 385.8 412.8C407.3 413.3 428.7 410.7 450 409.7C471.3 408.7 492.7 409.3 514.2 408.3C535.7 407.3 557.3 404.7 578.8 403.3C600.3 402 621.7 402 643 402.8C664.3 403.7 685.7 405.3 707 406.8C728.3 408.3 749.7 409.7 771.2 411.8C792.7 414 814.3 417 835.8 417C857.3 417 878.7 414 889.3 412.5L900 411L900 451L889.3 451C878.7 451 857.3 451 835.8 451C814.3 451 792.7 451 771.2 451C749.7 451 728.3 451 707 451C685.7 451 664.3 451 643 451C621.7 451 600.3 451 578.8 451C557.3 451 535.7 451 514.2 451C492.7 451 471.3 451 450 451C428.7 451 407.3 451 385.8 451C364.3 451 342.7 451 321.2 451C299.7 451 278.3 451 257 451C235.7 451 214.3 451 193 451C171.7 451 150.3 451 128.8 451C107.3 451 85.7 451 64.2 451C42.7 451 21.3 451 10.7 451L0 451Z" fill="#2c2c2c"></path><path d="M0 421L10.7 421.7C21.3 422.3 42.7 423.7 64.2 422.3C85.7 421 107.3 417 128.8 415.2C150.3 413.3 171.7 413.7 193 415C214.3 416.3 235.7 418.7 257 418.8C278.3 419 299.7 417 321.2 418.7C342.7 420.3 364.3 425.7 385.8 428.5C407.3 431.3 428.7 431.7 450 431C471.3 430.3 492.7 428.7 514.2 428.8C535.7 429 557.3 431 578.8 432.2C600.3 433.3 621.7 433.7 643 433.7C664.3 433.7 685.7 433.3 707 432C728.3 430.7 749.7 428.3 771.2 427.3C792.7 426.3 814.3 426.7 835.8 425.8C857.3 425 878.7 423 889.3 422L900 421L900 451L889.3 451C878.7 451 857.3 451 835.8 451C814.3 451 792.7 451 771.2 451C749.7 451 728.3 451 707 451C685.7 451 664.3 451 643 451C621.7 451 600.3 451 578.8 451C557.3 451 535.7 451 514.2 451C492.7 451 471.3 451 450 451C428.7 451 407.3 451 385.8 451C364.3 451 342.7 451 321.2 451C299.7 451 278.3 451 257 451C235.7 451 214.3 451 193 451C171.7 451 150.3 451 128.8 451C107.3 451 85.7 451 64.2 451C42.7 451 21.3 451 10.7 451L0 451Z" fill="#1a1a1a"></path><path d="M0 427L10.7 429.7C21.3 432.3 42.7 437.7 64.2 439C85.7 440.3 107.3 437.7 128.8 435.2C150.3 432.7 171.7 430.3 193 430.5C214.3 430.7 235.7 433.3 257 434.7C278.3 436 299.7 436 321.2 434.7C342.7 433.3 364.3 430.7 385.8 432C407.3 433.3 428.7 438.7 450 440.3C471.3 442 492.7 440 514.2 437.2C535.7 434.3 557.3 430.7 578.8 431C600.3 431.3 621.7 435.7 643 437.3C664.3 439 685.7 438 707 436C728.3 434 749.7 431 771.2 430.5C792.7 430 814.3 432 835.8 433.5C857.3 435 878.7 436 889.3 436.5L900 437L900 451L889.3 451C878.7 451 857.3 451 835.8 451C814.3 451 792.7 451 771.2 451C749.7 451 728.3 451 707 451C685.7 451 664.3 451 643 451C621.7 451 600.3 451 578.8 451C557.3 451 535.7 451 514.2 451C492.7 451 471.3 451 450 451C428.7 451 407.3 451 385.8 451C364.3 451 342.7 451 321.2 451C299.7 451 278.3 451 257 451C235.7 451 214.3 451 193 451C171.7 451 150.3 451 128.8 451C107.3 451 85.7 451 64.2 451C42.7 451 21.3 451 10.7 451L0 451Z" fill="#000000"></path></svg>